@startuml
left to right direction

interface пользователь {
  + получить_ФИО(): строка
  + получить_email(): строка
  + получить_пароль(): строка
  + получить_роль(): строка
  + получить_отчёты(): список<отчёт>
  + получить_уведомления(): список<уведомление>
  + установить_ФИО(ФИО : строка)
  + установить_email(ФИО : строка)
  + установить_пароль(ФИО : строка)
  + установить_роль(ФИО : строка)
  + установить_отчёты(отчёты: список<отчёт>)
  + установить_уведомления(уведомления: список<уведомление>)
}

interface уведомление {
  + получить_пользователя(): пользователь
  + получить_время(): дата
  + получить_сообщение(): строка
  + установить_пользователя(): пользователь
  + установить_время(): дата
  + установить_сообщение(): строка
}

interface отчёт {
  + получить_пользователя(): пользователь
  + получить_потребление(): потребление
  + получить_дату(): дата
  + получить_описание(): строка
  + установить_пользователя(пользователь : пользователь)
  + установить_потребление(потребление : потребление)
  + установить_дату(дата : дата)
  + установить_описание(описание : строка)
}


interface потребление {
  + получить_период(): дата
  + получить_энергоресурсы(): список<энергоресурс>
  + получить_общие_стоимости_ресурсов(): карта<энергоресурс, общая_стоимость_ресурса>
  + установить_период(период: дата)
  + установить_энергоресурсы(энергоресурсы: список<энергоресурс>)
  + установить_общие_стоимости_ресурсов(общие_стоимости_ресурсов: карта<энергоресурс, общая_стоимость_ресурса>)
}

interface энергоресурс {
  + получить_тип(): строка
  + получить_время(): дата
  + получить_стоимость_за_единицу(): число)
  + получить_тип(тип : строка)
  + получить_время(время : дата)
  + получить_стоимость_за_единицу(стоимость_за_единицу : число)
}

class Стандартный_пользователь <<data>> {
  + ФИО: строка
  + email: строка
  + пароль: строка
  + роль: строка
}

class Стандартный_энергоресурс <<data>> {
  + тип: строка
  + стоимость_за_единицу: строка
}

class "Стандартное_потребление" <<data>> {
  + период: дата
  + общая_стоимость_ресурса: число
}

class Стандартное_уведомление <<data>> {
  + пользователь: пользователь
  + сообщение: строка
}

class Стандартный_отчет <<data>> {
  + дата: дата
  + пользователь: пользователь
  + описание: строка
}

Стандартный_пользователь "1" o-- "N" уведомление
Стандартный_пользователь "1" o-- "N" отчёт
Стандартный_энергоресурс "1" o-- "N" отчёт
Стандартный_энергоресурс "1" o-- "1" потребление
"Стандартное_потребление" "1" o-- "N" отчёт
Стандартный_отчет "1" o-- "N" энергоресурс
Стандартный_отчет "N" o-- "1" пользователь
Стандартное_уведомление "N" o-- "1" пользователь


@enduml